<svg xmlns="http://www.w3.org/2000/svg" viewBox="0 0 196.53 90.89"><defs><style>.cls-1{fill:#245dd4;}</style></defs><g id="Layer_2" data-name="Layer 2"><g id="Layer_1-2" data-name="Layer 1"><path class="cls-1" d="M0,90.89v-12H1.73v12Zm0-12v12H1.73v-12ZM1.67,79H.06V90.84H1.67Zm14.86,0V90.84l-1.72-1.73-6.05-6L7,81.34V78.9l7.77,7.77V78.93ZM7,82.56l1.72,1.73v6.6H7Zm14.81-1.9V78.93H32.52v1.73Zm4.38,10.23V81.52H28v9.37Zm22.38-12v1.73H38V78.93ZM39.76,89.17h8.85v1.72H38V81.52h1.72v2.1h7.69v1.72H39.76Zm23.49,0v1.72H54v-12h1.72V89.17Zm14.62,0v1.72H68.56v-12h1.73V89.17ZM94,78.93v1.73H83.38V78.93ZM85.1,89.17H94v1.72H83.38V81.52H85.1v2.1h7.69v1.72H85.1Zm23.65-2.42h1.85a6,6,0,0,1-11.64-1,5.14,5.14,0,0,1-.07-.88,5.73,5.73,0,0,1,.06-.84,6,6,0,0,1,11.71-.83h-1.83a4.28,4.28,0,0,0-8.13.83,4.6,4.6,0,0,0-.08.84,4.27,4.27,0,0,0,4.27,4.28A4.3,4.3,0,0,0,108.75,86.75Zm5.64-6.09V78.93h10.67v1.73Zm4.38,10.23V81.52h1.72v9.37Zm20.74-5.12a3.44,3.44,0,0,1,0,3.4,3.42,3.42,0,0,1-3,1.72h-3.73a3.45,3.45,0,0,1-3-1.72,3.53,3.53,0,0,1-.45-1.61h1.73a1.7,1.7,0,0,0,1.7,1.61h3.73a1.7,1.7,0,0,0,0-3.4h-3.73a3.4,3.4,0,0,1-2.46-1,3.9,3.9,0,0,1-.52-.69,3.44,3.44,0,0,1,0-3.4,3.42,3.42,0,0,1,3-1.72h3.81a3.44,3.44,0,0,1,2.89,1.72h0a3.53,3.53,0,0,1,.45,1.61h-1.73a1.7,1.7,0,0,0-1.64-1.61h-3.78a1.7,1.7,0,0,0-.17,3.39h3.9A3.42,3.42,0,0,1,139.51,85.77Zm24.34-6.84v1.73H153.27V78.93ZM155,89.17h8.86v1.72H153.27V81.52H155v2.1h7.7v1.72H155Zm18.21-3.74,1.07,1.45-3,4h-2.14Zm7.25,5.46H178.3l-3.49-4.74h0l-1.07-1.46h0l-.16-.21-4.09-5.56h2.14l3,4.1.15.21L175,83l3-4.1h2.14L176,84.49l-.16.21Zm16.08-12v1.73H186V78.93Zm-8.85,10.24h8.85v1.72H186V81.52h1.72v2.1h7.7v1.72h-7.7Z"/><path id="logo" class="cls-1" d="M98.6,22.78v-2.3h3.3v2.3Zm29.51,1.11a8.19,8.19,0,0,0-1.29-1.47c-2.3-2.11-12.93-11.27-19.27-18.6-7.18-8.29-14.73-.51-14.73-.51S80.09,16.21,73.37,22.8C68,28.06,70.83,33.61,72.16,35.61a6.71,6.71,0,0,0,1,1.16l18.2,17.77a2.51,2.51,0,0,0,2.24.69c1.92-.44.64-2.82.64-2.82s-11.14-11.2-17.62-17.2c-5-4.66-1.47-9.34-.28-10.41.28-.25.56-.5.83-.76C79.73,21.47,91.78,9.53,95.92,5.5c4.67-4.53,8.52.1,8.52.1s15.48,15.21,19.77,19.33c2.57,2.48,2.27,4.93,1.62,6.5a6.85,6.85,0,0,1-1.54,2.19l-9,8.82c-2,1.85-3.57,3.7-5,5.09-2.46,2.4-7.24,1.45-7.86-1.93a59.8,59.8,0,0,1-.58-7.59V31h0v-2.3H98.62l0,2.08V31l-.16,25.55c0,4.92,4.62,2.16,7.11.46a18.13,18.13,0,0,0,2.35-1.93c2.92-2.85,13.36-13.07,19-18.93C131.89,30.92,129.53,26,128.11,23.89Z"/></g></g></svg>