<svg id="Layer_1" data-name="Layer 1" xmlns="http://www.w3.org/2000/svg" viewBox="0 0 2286 444"><defs><style>.cls-1{fill:#236;}.cls-2{fill:#78a;}</style></defs><path id="logo" class="cls-1" d="M227.56,170.84V155.93h21.36v14.91Zm191.31,7.22a53.36,53.36,0,0,0-8.36-9.53C395.6,154.85,326.69,95.48,285.6,48c-46.54-53.73-95.48-3.3-95.48-3.3S107.6,128.28,64,171c-34.74,34.1-16.46,70.07-7.84,83a43.36,43.36,0,0,0,6.29,7.52l118,115.18A16.25,16.25,0,0,0,195,381.2c12.45-2.85,4.15-18.27,4.15-18.27s-72.21-72.6-114.22-111.5c-32.6-30.2-9.52-60.54-1.81-67.47,1.81-1.62,3.63-3.24,5.38-4.93,16.79-16.66,94.9-94,121.73-120.18,30.27-29.36,55.23.65,55.23.65s100.34,98.59,128.15,125.3c16.66,16.08,14.71,32,10.5,42.13a44.47,44.47,0,0,1-10,14.2L336,298.3c-12.83,12-23.14,24-32.34,33-15.95,15.56-46.93,9.4-51-12.51a386.52,386.52,0,0,1-3.76-49.2L248.85,224h.06V209h-21.2l-.13,13.48V224l-1,165.61c-.26,31.89,29.94,14,46.08,3a118,118,0,0,0,15.24-12.51c18.92-18.47,86.6-84.72,123.09-122.7C443.37,223.63,428.07,191.54,418.87,178.06Z"/><rect class="cls-2" x="226.31" y="151.64" width="23.58" height="22.51"/><rect class="cls-1" x="550.33" y="170.04" width="16.78" height="116.56"/><rect class="cls-1" x="550.33" y="170.04" width="16.78" height="116.56"/><rect class="cls-1" x="550.9" y="170.6" width="15.66" height="115.44"/><polygon class="cls-1" points="693.61 170.24 693.61 286.07 676.84 269.3 618.06 210.51 601.28 193.74 601.28 170 676.84 245.56 676.84 170.24 693.61 170.24"/><polygon class="cls-1" points="601.28 205.6 618.06 222.38 618.06 286.6 601.28 286.6 601.28 205.6"/><rect class="cls-1" x="727.84" y="170.3" width="103.77" height="16.78"/><rect class="cls-1" x="770.43" y="195.46" width="16.78" height="91.14"/><rect class="cls-1" x="867.72" y="170.29" width="102.86" height="16.77"/><polygon class="cls-1" points="884.5 269.83 970.59 269.83 970.59 286.6 867.72 286.6 867.72 195.44 884.5 195.44 884.5 215.84 959.32 215.84 959.32 232.62 884.5 232.62 884.5 269.83"/><polygon class="cls-1" points="1095.46 269.82 1095.46 286.6 1004.94 286.6 1004.94 169.38 1021.72 169.38 1021.72 269.82 1095.46 269.82"/><polygon class="cls-1" points="1220.1 269.82 1220.1 286.6 1129.58 286.6 1129.58 169.38 1146.36 169.38 1146.36 269.82 1220.1 269.82"/><rect class="cls-1" x="1256.16" y="170.29" width="102.86" height="16.77"/><polygon class="cls-1" points="1272.93 269.83 1359.03 269.83 1359.03 286.6 1256.16 286.6 1256.16 195.44 1272.93 195.44 1272.93 215.84 1347.75 215.84 1347.75 232.62 1272.93 232.62 1272.93 269.83"/><path class="cls-1" d="M1485.37,246.27h18.05a58.38,58.38,0,0,1-113.26-9.48,57.6,57.6,0,0,1-.63-8.56A58.37,58.37,0,0,1,1504,212h-17.79a41.58,41.58,0,0,0-79,8,41.22,41.22,0,0,0-.82,8.22,41.59,41.59,0,0,0,79.06,18Z"/><rect class="cls-1" x="1522.75" y="170.3" width="103.77" height="16.78"/><rect class="cls-1" x="1565.34" y="195.46" width="16.78" height="91.14"/><path class="cls-1" d="M1749.55,236.81a33.29,33.29,0,0,1-28.91,49.79H1684.4a33.31,33.31,0,0,1-33.33-32.42h16.79a16.58,16.58,0,0,0,16.54,15.64h36.24a16.51,16.51,0,1,0,0-33h-36.29a33.21,33.21,0,0,1-23.87-10.1,33.78,33.78,0,0,1-5-6.69,33.29,33.29,0,0,1,28.92-49.79h35.37l.88,0,.86,0A33.32,33.32,0,0,1,1749.53,187l0,0a33.37,33.37,0,0,1,4.38,15.63h-16.8A16.57,16.57,0,0,0,1721.2,187h-36.85a16.51,16.51,0,0,0-1.64,32.94c.56,0,1.12,0,1.69,0,1,0,1.94,0,2.9.12h33.34A33.28,33.28,0,0,1,1749.55,236.81Z"/><rect class="cls-2" x="1788.13" y="269.82" width="24.04" height="16.78"/><rect class="cls-2" x="1848.36" y="170.29" width="102.86" height="16.77"/><polygon class="cls-2" points="1865.13 269.83 1951.23 269.83 1951.23 286.6 1848.36 286.6 1848.36 195.44 1865.13 195.44 1865.13 215.84 1939.95 215.84 1939.95 232.62 1865.13 232.62 1865.13 269.83"/><polygon class="cls-2" points="2024.72 233.46 2035.13 247.6 2006.42 286.6 1985.59 286.6 2024.72 233.46"/><polygon class="cls-2" points="2095.15 286.6 2074.31 286.6 2040.37 240.51 2040.35 240.54 2029.92 226.39 2029.95 226.36 2028.43 224.3 1988.63 170.23 2009.45 170.23 2038.85 210.15 2040.37 212.21 2041.88 210.15 2071.27 170.23 2092.11 170.23 2052.3 224.3 2050.79 226.36 2095.15 286.6"/><rect class="cls-2" x="2131.25" y="170.29" width="102.86" height="16.77"/><polygon class="cls-2" points="2148.02 269.83 2234.11 269.83 2234.11 286.6 2131.25 286.6 2131.25 195.44 2148.02 195.44 2148.02 215.84 2222.84 215.84 2222.84 232.62 2148.02 232.62 2148.02 269.83"/></svg>