<svg id="Layer_1" data-name="Layer 1" xmlns="http://www.w3.org/2000/svg" viewBox="0 0 963 944"><defs><style>.cls-1{fill:#236;}.cls-2{fill:#78a;}</style></defs><path id="logo" class="cls-1" d="M457.1,363.07V328.54h49.49v34.53Zm443.13,16.72a122.76,122.76,0,0,0-19.37-22.07C846.33,326,686.73,188.51,591.54,78.46,483.74-46,370.39,70.8,370.39,70.8s-191.13,193.68-292,292.63c-80.47,79-38.13,162.3-18.16,192.33a100.78,100.78,0,0,0,14.56,17.41L348,840c8.7,8.41,21.47,13.06,33.63,10.36,28.83-6.6,9.61-42.34,9.61-42.34S224,639.84,126.71,549.75c-75.52-70-22.07-140.23-4.2-156.29,4.2-3.76,8.4-7.51,12.46-11.42,38.88-38.58,219.8-217.85,282-278.36,70.12-68,127.92,1.51,127.92,1.51S777.27,333.55,841.68,395.41c38.58,37.23,34.08,74,24.32,97.59-5.25,12.46-13.51,23.42-23.12,32.88L708.2,658.3c-29.72,27.78-53.6,55.55-74.92,76.42-36.93,36-108.7,21.77-118-29-8.56-57.51-8.71-114-8.71-114l-.15-105.7h.15V451.56H457.47l-.3,31.23v3.45l-2.4,383.61c-.6,73.87,69.36,32.43,106.75,6.91a272.52,272.52,0,0,0,35.28-29C640.64,805,797.39,651.55,881.91,563.56,957,485.34,921.55,411,900.23,379.79Z"/><rect class="cls-2" x="454.23" y="318.59" width="54.61" height="52.15"/></svg>